<svg version="1.1" xmlns="http://www.w3.org/2000/svg" xmlns:xlink="http://www.w3.org/1999/xlink" x="0px" y="0px" viewBox="0 0 211 81.1" style="enable-background:new 0 0 211 81.1;" xml:space="preserve">
<style type="text/css">
	.st0{fill:#FDFDFE;}
	.st1{fill:#8BA6C5;}
	.st2{fill:#FFFFFF;}
	.st3{enable-background:new    ;}
</style>
<title>axe-core the Accessibility Engine</title>
<path class="st0" d="M87.5,70.1H6l17.2-29.8L46.3,0.3C46.5,0,46.8-0.1,47,0.1c0.1,0,0.2,0.1,0.2,0.2l23.1,40.1L87.5,70.1z"/>
<path class="st1" d="M93,81.1H0.5c-0.3,0-0.5-0.2-0.5-0.5c0-0.1,0-0.2,0.1-0.2L6,70.1h81.6l5.9,10.2c0.1,0.2,0.1,0.5-0.2,0.7
	C93.2,81.1,93.1,81.1,93,81.1z"/>
<path class="st2" d="M118.1,34.9v3c-8.1-5.4-19-3.3-24.5,4.8s-3.3,19,4.8,24.5c5.9,4,13.7,4,19.6,0v3h7.8V34.9H118.1z M108.3,62.3
	c-5.4,0-9.8-4.4-9.8-9.8s4.4-9.8,9.8-9.8c5.4,0,9.8,4.4,9.8,9.8C118.1,57.9,113.7,62.3,108.3,62.3z"/>
<polygon class="st1" points="173.1,37.5 167.5,32 152.7,46.8 137.8,32 132.3,37.5 147.2,52.4 132.3,67.2 137.8,72.8 152.7,57.9 
	167.5,72.8 173.1,67.2 158.2,52.4 "/>
<path class="st2" d="M210.6,56.2c2-9.5-4.1-18.8-13.5-20.8c-9.5-2-18.8,4.1-20.8,13.5s4.1,18.8,13.5,20.8
	c8.9,1.9,17.8-3.4,20.4-12.1h-8.6c-2.8,4.6-8.9,6-13.4,3.1c-1.8-1.1-3.1-2.7-3.9-4.6L210.6,56.2z M193.3,42.7c3.8,0,7.2,2.2,8.8,5.7
	h-17.7C186.1,44.9,189.5,42.7,193.3,42.7z"/>
<g class="st3">
	<path class="st2" d="M98.4,21.8h-2v5.3h-1.3v-5.3h-1.9v-1.1h5.2V21.8z"/>
	<path class="st2" d="M104.3,27.1H103v-2.7h-2.6v2.7h-1.3v-6.4h1.3v2.6h2.6v-2.6h1.3V27.1z"/>
	<path class="st2" d="M109.3,24.4h-2.5v1.7h3v1.1h-4.3v-6.4h4.3v1.1h-3v1.5h2.5V24.4z"/>
</g>
<g class="st3">
	<path class="st2" d="M116.3,25.8H114l-0.4,1.3h-1.4l2.4-6.4h1.2l2.4,6.4h-1.4L116.3,25.8z M114.4,24.7h1.6l-0.8-2.4L114.4,24.7z"/>
</g>
<g class="st3">
	<path class="st2" d="M123.6,25c0,0.7-0.3,1.2-0.8,1.6c-0.5,0.4-1.1,0.6-1.8,0.6c-0.8,0-1.5-0.3-1.9-0.8c-0.5-0.6-0.7-1.3-0.7-2.3
		v-0.4c0-0.6,0.1-1.2,0.3-1.6s0.5-0.8,0.9-1.1c0.4-0.3,0.9-0.4,1.4-0.4c0.7,0,1.3,0.2,1.8,0.6c0.5,0.4,0.7,1,0.8,1.7h-1.3
		c0-0.4-0.1-0.7-0.3-0.9c-0.2-0.2-0.5-0.3-0.9-0.3c-0.4,0-0.8,0.2-1,0.5c-0.2,0.3-0.3,0.8-0.3,1.5v0.5c0,0.7,0.1,1.2,0.3,1.5
		c0.2,0.3,0.5,0.5,1,0.5c0.4,0,0.7-0.1,0.9-0.3c0.2-0.2,0.3-0.5,0.3-0.9H123.6z"/>
	<path class="st2" d="M129.5,25c0,0.7-0.3,1.2-0.8,1.6c-0.5,0.4-1.1,0.6-1.8,0.6c-0.8,0-1.5-0.3-1.9-0.8c-0.5-0.6-0.7-1.3-0.7-2.3
		v-0.4c0-0.6,0.1-1.2,0.3-1.6s0.5-0.8,0.9-1.1c0.4-0.3,0.9-0.4,1.4-0.4c0.7,0,1.3,0.2,1.8,0.6c0.5,0.4,0.7,1,0.8,1.7h-1.3
		c0-0.4-0.1-0.7-0.3-0.9c-0.2-0.2-0.5-0.3-0.9-0.3c-0.4,0-0.8,0.2-1,0.5c-0.2,0.3-0.3,0.8-0.3,1.5v0.5c0,0.7,0.1,1.2,0.3,1.5
		c0.2,0.3,0.5,0.5,1,0.5c0.4,0,0.7-0.1,0.9-0.3c0.2-0.2,0.3-0.5,0.3-0.9H129.5z"/>
	<path class="st2" d="M134.3,24.4h-2.5v1.7h3v1.1h-4.3v-6.4h4.3v1.1h-3v1.5h2.5V24.4z"/>
	<path class="st2" d="M138.8,25.5c0-0.2-0.1-0.4-0.3-0.6c-0.2-0.1-0.5-0.3-0.9-0.4c-0.5-0.1-0.8-0.3-1.1-0.4
		c-0.7-0.4-1.1-0.9-1.1-1.6c0-0.3,0.1-0.7,0.3-0.9c0.2-0.3,0.5-0.5,0.8-0.6c0.4-0.2,0.8-0.2,1.2-0.2c0.5,0,0.9,0.1,1.2,0.2
		c0.4,0.2,0.6,0.4,0.8,0.7c0.2,0.3,0.3,0.6,0.3,1h-1.3c0-0.3-0.1-0.5-0.3-0.7c-0.2-0.2-0.4-0.2-0.8-0.2c-0.3,0-0.6,0.1-0.8,0.2
		c-0.2,0.1-0.3,0.3-0.3,0.5c0,0.2,0.1,0.4,0.3,0.5c0.2,0.1,0.5,0.3,0.9,0.4c0.8,0.2,1.3,0.5,1.6,0.8s0.5,0.8,0.5,1.2
		c0,0.6-0.2,1-0.6,1.3c-0.4,0.3-1,0.5-1.7,0.5c-0.5,0-0.9-0.1-1.3-0.3c-0.4-0.2-0.7-0.4-0.9-0.7c-0.2-0.3-0.3-0.7-0.3-1.1h1.3
		c0,0.7,0.4,1.1,1.3,1.1c0.3,0,0.6-0.1,0.7-0.2C138.7,25.9,138.8,25.7,138.8,25.5z"/>
	<path class="st2" d="M144.3,25.5c0-0.2-0.1-0.4-0.3-0.6c-0.2-0.1-0.5-0.3-0.9-0.4c-0.5-0.1-0.8-0.3-1.1-0.4
		c-0.7-0.4-1.1-0.9-1.1-1.6c0-0.3,0.1-0.7,0.3-0.9c0.2-0.3,0.5-0.5,0.8-0.6c0.4-0.2,0.8-0.2,1.2-0.2c0.5,0,0.9,0.1,1.2,0.2
		c0.4,0.2,0.6,0.4,0.8,0.7c0.2,0.3,0.3,0.6,0.3,1h-1.3c0-0.3-0.1-0.5-0.3-0.7c-0.2-0.2-0.4-0.2-0.8-0.2c-0.3,0-0.6,0.1-0.8,0.2
		c-0.2,0.1-0.3,0.3-0.3,0.5c0,0.2,0.1,0.4,0.3,0.5c0.2,0.1,0.5,0.3,0.9,0.4c0.8,0.2,1.3,0.5,1.6,0.8s0.5,0.8,0.5,1.2
		c0,0.6-0.2,1-0.6,1.3c-0.4,0.3-1,0.5-1.7,0.5c-0.5,0-0.9-0.1-1.3-0.3c-0.4-0.2-0.7-0.4-0.9-0.7c-0.2-0.3-0.3-0.7-0.3-1.1h1.3
		c0,0.7,0.4,1.1,1.3,1.1c0.3,0,0.6-0.1,0.7-0.2C144.2,25.9,144.3,25.7,144.3,25.5z"/>
	<path class="st2" d="M147.9,27.1h-1.3v-6.4h1.3V27.1z"/>
	<path class="st2" d="M149.2,27.1v-6.4h2.2c0.8,0,1.4,0.1,1.8,0.4c0.4,0.3,0.6,0.7,0.6,1.3c0,0.3-0.1,0.6-0.2,0.8
		c-0.2,0.2-0.4,0.4-0.7,0.5c0.3,0.1,0.6,0.2,0.8,0.5c0.2,0.2,0.3,0.6,0.3,0.9c0,0.6-0.2,1.1-0.6,1.4s-1,0.5-1.7,0.5H149.2z
		 M150.5,23.4h1c0.7,0,1-0.3,1-0.8c0-0.3-0.1-0.5-0.3-0.6c-0.2-0.1-0.4-0.2-0.8-0.2h-0.9V23.4z M150.5,24.3v1.7h1.1
		c0.3,0,0.6-0.1,0.7-0.2c0.2-0.1,0.3-0.4,0.3-0.6c0-0.6-0.3-0.9-0.9-0.9H150.5z"/>
	<path class="st2" d="M156.3,27.1H155v-6.4h1.3V27.1z"/>
	<path class="st2" d="M158.8,26.1h2.8v1.1h-4.1v-6.4h1.3V26.1z"/>
</g>
<g class="st3">
	<path class="st2" d="M163.4,27.1H162v-6.4h1.3V27.1z"/>
</g>
<g class="st3">
	<path class="st2" d="M169.2,21.8h-2v5.3h-1.3v-5.3H164v-1.1h5.2V21.8z"/>
</g>
<g class="st3">
	<path class="st2" d="M172.1,23.6l1.3-2.9h1.4l-2.1,4.1v2.3h-1.3v-2.3l-2.1-4.1h1.4L172.1,23.6z"/>
	<path class="st2" d="M181.6,24.4H179v1.7h3v1.1h-4.3v-6.4h4.3v1.1h-3v1.5h2.5V24.4z"/>
	<path class="st2" d="M188,27.1h-1.3l-2.6-4.2v4.2h-1.3v-6.4h1.3l2.6,4.2v-4.2h1.3V27.1z"/>
	<path class="st2" d="M194.2,26.3c-0.2,0.3-0.6,0.5-1,0.7c-0.4,0.2-0.9,0.2-1.4,0.2c-0.6,0-1-0.1-1.5-0.4c-0.4-0.2-0.7-0.6-1-1.1
		c-0.2-0.5-0.3-1-0.3-1.6v-0.4c0-0.6,0.1-1.2,0.3-1.7c0.2-0.5,0.5-0.8,0.9-1.1c0.4-0.2,0.9-0.4,1.4-0.4c0.8,0,1.4,0.2,1.8,0.5
		c0.4,0.4,0.7,0.9,0.8,1.6h-1.3c-0.1-0.4-0.2-0.6-0.4-0.8c-0.2-0.2-0.5-0.3-0.8-0.3c-0.4,0-0.8,0.2-1,0.5c-0.2,0.3-0.4,0.8-0.4,1.5
		v0.4c0,0.7,0.1,1.2,0.4,1.5s0.6,0.5,1.1,0.5c0.5,0,0.8-0.1,1.1-0.3v-1.1h-1.2v-1h2.5V26.3z"/>
	<path class="st2" d="M196.7,27.1h-1.3v-6.4h1.3V27.1z"/>
	<path class="st2" d="M203.1,27.1h-1.3l-2.6-4.2v4.2h-1.3v-6.4h1.3l2.6,4.2v-4.2h1.3V27.1z"/>
	<path class="st2" d="M208.1,24.4h-2.5v1.7h3v1.1h-4.3v-6.4h4.3v1.1h-3v1.5h2.5V24.4z"/>
</g>
</svg>
