<svg xmlns="http://www.w3.org/2000/svg" viewBox="0 0 210.96217 81.13503"><title>axecore-logo_rebuilt</title><path d="M87.54641,70.135H5.98635l17.21-29.82,23.14-40.06a.49.49,0,0,1,.86,0l23.14,40.06Z" style="fill:#fdfdfe"/><path d="M93.02639,81.135H.50637a.50282.50282,0,0,1-.44-.75l5.92-10.25H87.54641l5.92,10.25A.50282.50282,0,0,1,93.02639,81.135Z" style="fill:#8ba6c5"/><path d="M118.12061,34.8867v2.98166a17.62459,17.62459,0,1,0,0,29.28612v2.98142h7.83315V34.8867Zm-9.80722,27.41616a9.79144,9.79144,0,1,1,9.79144-9.79144A9.80251,9.80251,0,0,1,108.31339,62.30286Z" style="fill:#fff"/><polygon points="173.084 37.512 167.546 31.974 152.691 46.829 137.836 31.974 132.298 37.512 147.153 52.368 132.298 67.223 137.836 72.762 152.691 57.906 167.546 72.762 173.084 67.223 158.229 52.368 173.084 37.512" style="fill:#8ba6c5"/><path d="M210.56344,56.22133a17.54469,17.54469,0,1,0-.37758,1.46872h-8.57265a9.755,9.755,0,0,1-17.32734-1.47063ZM193.33757,42.72a9.78191,9.78191,0,0,1,8.84827,5.66629H184.4893A9.78191,9.78191,0,0,1,193.33757,42.72Z" style="fill:#fff"/><text transform="translate(92.97163 27.13503)" style="font-size:9px;fill:#fff;font-family:Roboto-Medium, Roboto">THE <tspan x="19.18652" y="0" style="letter-spacing:-0.01025390625em">A</tspan><tspan x="25.08398" y="0" style="letter-spacing:-0.00005425347222222222em">CCESSIBIL</tspan><tspan x="68.41406" y="0" style="letter-spacing:-0.014214409722222222em">I</tspan><tspan x="70.82617" y="0" style="letter-spacing:0.0078125em">T</tspan><tspan x="76.35938" y="0">Y ENGINE</tspan></text></svg>