<svg id="Layer_1" data-name="Layer 1" xmlns="http://www.w3.org/2000/svg" xmlns:xlink="http://www.w3.org/1999/xlink" viewBox="0 0 711 215.53"><defs><style>.cls-1{fill:#02101a;}.cls-2{fill:#8ba6c5;}.cls-3{fill:#fff;}.cls-4{fill:#824106;}.cls-5{fill:#fdfdfd;}.cls-6{fill:url(#linear-gradient);}</style><linearGradient id="linear-gradient" x1="100.63" y1="102.59" x2="150.11" y2="172.67" gradientUnits="userSpaceOnUse"><stop offset="0" stop-color="#fff"/><stop offset="0.02" stop-color="#fcfcfc"/><stop offset="0.35" stop-color="#cac5cd"/><stop offset="0.64" stop-color="#a59daa"/><stop offset="0.86" stop-color="#8e8495"/><stop offset="1" stop-color="#867b8d"/></linearGradient></defs><title>WorldSpace Logos 2017 - web</title><path class="cls-1" d="M294.22,26.08v4.68a27.67,27.67,0,1,0,0,46v4.68h12.3V26.08Zm-15.4,43A15.37,15.37,0,1,1,294.2,53.75a15.37,15.37,0,0,1-15.37,15.37Z"/><polygon class="cls-2" points="380.51 30.2 371.81 21.51 348.49 44.83 325.17 21.51 316.48 30.2 339.8 53.52 316.48 76.84 325.17 85.54 348.49 62.22 371.81 85.54 380.51 76.84 357.19 53.52 380.51 30.2"/><path class="cls-1" d="M439.34,59.57a27.54,27.54,0,1,0-.59,2.31H425.29a15.31,15.31,0,0,1-27.2-2.31Zm-27-21.19a15.36,15.36,0,0,1,13.89,8.89H398.41A15.36,15.36,0,0,1,412.3,38.38Z"/><path class="cls-1" d="M283.15,110.47a192.94,192.94,0,0,1,26.11,2.67v6.31c-.11,0-16.26-1.07-26.11-1.07-13.37,0-18.19,6.1-18.19,32.1,0,17.55,4,31.88,18.19,31.88,11.23,0,26.11-.75,26.11-.75v6.31a188.54,188.54,0,0,1-26.11,2.35c-19.79,0-26.11-17-26.11-40C257,125.23,261.86,110.47,283.15,110.47Z"/><path class="cls-1" d="M338,132.29c19.15,0,25,7.17,25,29.75,0,21.08-5.88,28.14-25,28.14s-25-7.81-25-28.14C313,138.82,319.42,132.29,338,132.29Zm0,50c11.55,0,17.12-1.5,17.12-20.22,0-20.33-4.6-21.83-17.12-21.83-12,0-17.12,1.39-17.12,21.83C320.92,181,327,182.26,338,182.26Z"/><path class="cls-1" d="M391.43,132.29c5.56,0,16.9,1.39,24.39,2.78v5.78s-14.87-.64-24.39-.64c-6.42,0-10.81,1.18-10.81,21.4,0,16.37,3.1,20.65,10.81,20.65,9.84,0,25.14-1.18,25.14-1.18v6c-8.67,2.46-16.26,3-25.14,3.1-10.59,0-18.72-4.07-18.72-29S380.52,132.29,391.43,132.29Z"/><path class="cls-1" d="M449.11,132.29c19.15,0,25,7.17,25,29.75,0,21.08-5.88,28.14-25,28.14s-25-7.81-25-28.14C424.07,138.82,430.49,132.29,449.11,132.29Zm0,50c11.56,0,17.12-1.5,17.12-20.22,0-20.33-4.6-21.83-17.12-21.83-12,0-17.12,1.39-17.12,21.83C432,181,438.09,182.26,449.11,182.26Z"/><path class="cls-1" d="M485.92,132.83h5.56l2.35,6.63c6.53-3.75,12.3-7.6,21-7.6,11.34,0,17.55,8.77,17.55,18.19v39.59h-7.92V150.05c0-7.06-4.17-10.27-9.63-10.27-8.56,0-12.73,2.14-21,6.1v43.76h-7.92Z"/><path class="cls-1" d="M543.05,132.83H551v39.59c0,7.06,4.17,10.27,9.63,10.27,8.56,0,12.73-2.14,21-6.1V132.83h7.92v56.81h-5.56L581.57,183c-6.53,3.75-12.3,7.6-21,7.6-11.34,0-17.55-8.77-17.55-18.19Z"/><path class="cls-1" d="M598,134.65l10.59-1.93,1.93-15.83h6v15.83h16.58v7.92H616.56v28.67c0,9.31,2.46,11.45,6.1,12.3,0,0,8.77,2.25,9.52,2.25v5.67h-9.42c-8.24,0-14.12-5.14-14.12-20.22V140.64H598Z"/><path class="cls-3" d="M91.46,128.63,89.08,131a1.5,1.5,0,0,1-2.19,0L64.75,108.86a1.5,1.5,0,0,1,0-2.19L86.9,84.52a1.49,1.49,0,0,1,2.19,0l2.38,2.38a1.5,1.5,0,0,1,0,2.19L72.78,107.76l18.68,18.68a1.49,1.49,0,0,1,0,2.19Zm28.09-50.71-17.73,61.36a1.55,1.55,0,0,1-.74.93,1.33,1.33,0,0,1-1.12.12L97,139.51a1.54,1.54,0,0,1-.93-.74,1.42,1.42,0,0,1-.12-1.16l17.73-61.36a1.55,1.55,0,0,1,.74-.93,1.33,1.33,0,0,1,1.12-.12l2.95.81a1.55,1.55,0,0,1,.93.74A1.42,1.42,0,0,1,119.55,77.92Zm31.23,30.94L128.63,131a1.5,1.5,0,0,1-2.19,0l-2.38-2.38a1.49,1.49,0,0,1,0-2.19l18.68-18.68L124.07,89.09a1.5,1.5,0,0,1,0-2.19l2.38-2.38a1.49,1.49,0,0,1,2.19,0l22.15,22.15a1.5,1.5,0,0,1,0,2.19Z"/><path class="cls-4" d="M139.68,75.47a68.74,68.74,0,0,0-29.85-8.3l0,1.71.32,14.33.07,3,.33,14.33.38,16.54h0v0L77.19,99.59,60.07,90.76A58.81,58.81,0,0,1,71.58,80.36a65.13,65.13,0,0,1,9.81-5.57l-1.61-2.3a70.21,70.21,0,0,0-11.7,6.07,69.25,69.25,0,0,0-12.23,10,68.51,68.51,0,0,0-19.37,48c0,38.34,32.76,69.42,73.16,69.42s73.66-31.08,73.16-69.42C182.54,115.39,164.71,88.76,139.68,75.47Z"/><path class="cls-5" d="M178.08,122.37c-5.36-15.62-20.09-33.51-38.28-44.14a64.12,64.12,0,0,0-29.94-9.34l.32,14.33.07,3,.33,14.33.38,16.54h0v0L77.19,99.59a46.5,46.5,0,0,1,12.29-10c.54-.32,1.1-.61,1.65-.9L81.39,74.79a65.13,65.13,0,0,0-9.81,5.57A58.81,58.81,0,0,0,60.07,90.76a42.31,42.31,0,0,0-10.72,27.1c0,25.63,25.06,67.7,84.68,69.63C165.11,188.49,186.43,146.7,178.08,122.37Z"/><path class="cls-2" d="M68.08,78.56a69.25,69.25,0,0,0-12.23,10l-23-11.86a.67.67,0,0,1-.29-.89.74.74,0,0,1,.23-.26L46,67.14Z"/><path class="cls-6" d="M140.42,91.31A45,45,0,0,0,114.2,83c-1.35,0-2.69.06-4,.17l.07,3,.33,14.33.38,16.54h0v0L93.26,91.75l-.21-.3-1.93-2.75c-.55.29-1.11.59-1.65.9a46.5,46.5,0,0,0-12.29,10,32.75,32.75,0,0,0-8.56,21.16c0,25.85,38.39,47.24,61.69,45.45,7.94-.61,17.87-2.82,24.85-10.9,1.26-1.46,7.19-9.73,7.19-24.24C162.35,118.19,154.57,101.24,140.42,91.31Z"/><path class="cls-1" d="M141.59,116.54l-31-16L93.05,91.46l-1.93-2.75L81.39,74.79l-1.61-2.3a70.2,70.2,0,0,0-11.7,6.07L46,67.14,84.22,42.61,135.61,9.67a.64.64,0,0,1,.89.17h0a.6.6,0,0,1,.11.34l2.86,61,.2,4.31.13,2.75.61,13.09Z"/><path class="cls-2" d="M142.32,132.14a.66.66,0,0,1-.64.69h0a.75.75,0,0,1-.34-.08L111,117.05h0L93.26,91.75l-.21-.3,17.54,9.06,31,16Z"/></svg>