<?xml version="1.0" encoding="utf-8"?>
<!-- Generator: Adobe Illustrator 21.0.1, SVG Export Plug-In . SVG Version: 6.00 Build 0)  -->
<svg version="1.1" id="Layer_1" xmlns="http://www.w3.org/2000/svg" xmlns:xlink="http://www.w3.org/1999/xlink" x="0px" y="0px"
	 viewBox="0 0 373.7 127.1" style="enable-background:new 0 0 373.7 127.1;" xml:space="preserve">
<style type="text/css">
	.st0{fill:#FFFFFF;}
	.st1{fill:#8EC640;enable-background:new    ;}
</style>
<g>
	<path class="st0" d="M116.9,34.2c-10.7,0-19.6,3.5-26.5,10.5C83.5,51.6,80,60.5,80,71.1c0,10.1,3.6,18.9,10.6,26.1
		c7,7.2,15.8,10.9,26,10.9c7.7,0,14.5-2.1,20.4-6.3c5.8-4.1,10.4-10.1,13.6-17.7l1.7-4.1h-15.8l-0.8,1.7c-1.9,3.9-4.5,7-7.9,9.2
		c-3.4,2.2-7.1,3.3-11.4,3.3c-6.1,0-11-1.8-15.1-5.6c-3.3-3.1-5.4-7-6.3-11.8h57.8v-3.6c0-11.4-3.4-20.8-10-28
		C136.1,37.9,127.4,34.2,116.9,34.2z M101.8,53c3.8-3.4,8.3-5.1,13.9-5.1c6,0,10.7,1.5,14.4,4.7c2.9,2.6,5.2,6.2,6.7,10.9H95.5
		C96.7,59.2,98.8,55.8,101.8,53z"/>
	<path class="st0" d="M215.2,41.7c-1.8-1.5-3.8-2.8-6-3.8c-4.5-2.2-9.4-3.3-14.7-3.3c-10.4,0-19.2,3.6-26.2,10.6
		c-7,7-10.5,15.9-10.5,26.3c0,10.3,3.5,19,10.3,26c6.8,7,15.5,10.6,25.7,10.6c5.5,0,10.6-1.1,15.2-3.2c2.3-1.1,4.3-2.3,6.2-3.8v26
		h14.4V36h-14.4V41.7z M178.9,54.9c4.3-4.5,9.4-6.7,15.4-6.7c5.5,0,10.3,2.2,14.6,6.7c4.4,4.6,6.5,9.8,6.5,15.9
		c0,6.6-2.1,12.2-6.5,16.9c-4.3,4.6-9.2,6.9-14.9,6.9c-6,0-11-2.1-15.3-6.5c-4.3-4.4-6.4-9.7-6.4-16.2
		C172.4,65,174.6,59.5,178.9,54.9z"/>
	<path class="st0" d="M282.2,70.7c0,5.5-0.2,9.3-0.6,11.4c-0.4,1.9-1,3.6-1.7,5c-1.4,2.4-3.3,4.2-5.6,5.4c-2.4,1.3-5.2,1.9-8.4,1.9
		c-5.6,0-9.4-1.4-11.7-4.3c-2.4-3.1-3.6-8.8-3.6-16.8V36h-14.2v36.6c0,12.5,2.2,21.3,6.8,26.9c4.7,5.7,12.2,8.6,22.4,8.6
		c4.8,0,8.9-0.8,12.4-2.3c1.4-0.6,2.8-1.4,4.2-2.4v2.9h14.2V36h-14.2V70.7z"/>
	<path class="st0" d="M373.7,73.1c0-11.4-3.4-20.8-10-28c-6.7-7.3-15.4-11-25.9-11c-10.7,0-19.6,3.5-26.5,10.5
		c-6.9,7-10.4,15.8-10.4,26.4c0,10.1,3.6,18.9,10.6,26.1c7,7.2,15.8,10.9,26,10.9c7.7,0,14.5-2.1,20.4-6.3
		c5.8-4.1,10.4-10.1,13.5-17.7l1.7-4.1h-15.8l-0.8,1.7c-1.9,3.9-4.5,7-7.9,9.2c-3.4,2.2-7.1,3.3-11.4,3.3c-6.1,0-11-1.8-15.1-5.6
		c-3.3-3.1-5.4-7-6.3-11.8h57.8V73.1z M322.8,53c3.8-3.4,8.3-5.1,13.9-5.1c6,0,10.7,1.5,14.4,4.7c2.9,2.6,5.2,6.2,6.7,10.9h-41.2
		C317.6,59.2,319.7,55.8,322.8,53z"/>
</g>
<path class="st0" d="M74,71.1V0H55.9v39.7c-5.5-3.3-12-5.2-18.9-5.2c-20.4,0-37,16.6-37,37c0,20.4,16.6,37,37,37
	c3.8,0,7.4-0.6,10.9-1.6l0-15.2c-3.2,1.8-7,2.8-10.9,2.8c-12.6,0-22.9-10.3-22.9-22.9c0-12.6,10.3-22.9,22.9-22.9
	c12.6,0,22.9,10.3,22.9,22.9c0,0.5,0,0.9,0,1.4l0,27.6c8.4-6.6,13.8-16.7,14.1-28.1h0v-0.6c0-0.1,0-0.2,0-0.3
	C74,71.3,74,71.2,74,71.1z"/>
<path class="st1" d="M37,83c-6.4,0-11.6-5.2-11.6-11.6c0-6.4,5.2-11.6,11.6-11.6c6.4,0,11.6,5.2,11.6,11.6C48.6,77.8,43.4,83,37,83z
	"/>
</svg>
