<?xml version="1.0" encoding="utf-8"?>
<!-- Generator: Adobe Illustrator 19.2.1, SVG Export Plug-In . SVG Version: 6.00 Build 0)  -->
<svg version="1.1" id="Layer_1" xmlns="http://www.w3.org/2000/svg" xmlns:xlink="http://www.w3.org/1999/xlink" x="0px" y="0px"
	 viewBox="0 0 50.6 17.2" style="enable-background:new 0 0 50.6 17.2;" xml:space="preserve">
<style type="text/css">
	.st0{fill:#FFFFFF;}
	.st1{fill:#D4DDE0;}
</style>
<g>
	<path class="st0" d="M11.5,1.2v1.3c-1.2-0.8-2.6-1.3-4.1-1.3C3.3,1.2,0,4.5,0,8.6c0,4.1,3.3,7.4,7.4,7.4c1.5,0,2.9-0.5,4.1-1.3v1.3
		h3.3V1.2H11.5z M7.4,12.8c-2.3,0-4.1-1.8-4.1-4.1s1.8-4.1,4.1-4.1s4.1,1.8,4.1,4.1S9.7,12.8,7.4,12.8z"/>
	<polygon class="st1" points="34.7,2.3 32.3,0 26.1,6.3 19.8,0 17.5,2.3 23.8,8.6 17.5,14.8 19.8,17.2 26.1,10.9 32.3,17.2 
		34.7,14.8 28.4,8.6 	"/>
	<path class="st0" d="M50.4,10.2c0.1-0.5,0.2-1,0.2-1.6c0-4.1-3.3-7.4-7.4-7.4s-7.4,3.3-7.4,7.4c0,4.1,3.3,7.4,7.4,7.4
		c3.3,0,6.2-2.2,7.1-5.2h-3.6c-0.7,1.2-2,1.9-3.5,1.9c-1.7,0-3.2-1.1-3.8-2.6L50.4,10.2z M43.2,4.5c1.6,0,3.1,1,3.7,2.4h-7.4
		C40.1,5.5,41.5,4.5,43.2,4.5z"/>
</g>
</svg>
